<svg width="24" height="24" viewBox="0 0 24 24" fill="none" xmlns="http://www.w3.org/2000/svg">
<path fill-rule="evenodd" clip-rule="evenodd" d="M19 8.1875C19 9.56821 17.8807 10.6875 16.5 10.6875C15.1193 10.6875 14 9.56821 14 8.1875C14 6.80679 15.1193 5.6875 16.5 5.6875C17.8807 5.6875 19 6.80679 19 8.1875ZM18.3 8.1875C18.3 9.18161 17.4941 9.9875 16.5 9.9875C15.5059 9.9875 14.7 9.18161 14.7 8.1875C14.7 7.19339 15.5059 6.3875 16.5 6.3875C17.4941 6.3875 18.3 7.19339 18.3 8.1875Z" fill="#23353F"/>
<path fill-rule="evenodd" clip-rule="evenodd" d="M2.06248 21V15.1323L1.98242 15.0648L2.06248 14.9699V3C2.06248 2.44772 2.5102 2 3.06248 2H21.0625C21.6148 2 22.0625 2.44772 22.0625 3V21C22.0625 21.5523 21.6148 22 21.0625 22H3.06248C2.5102 22 2.06248 21.5523 2.06248 21ZM21.0625 3H3.06248V13.7841L8.24191 7.64238L19.2691 20.9012L19.1503 21H21.0625V3ZM8.23818 8.73262L3.06248 14.8699V21H18.4408L8.23818 8.73262Z" fill="#23353F"/>
</svg>
