<svg width="50" height="58" viewBox="0 0 50 58" fill="none" xmlns="http://www.w3.org/2000/svg">
<g filter="url(#filter0_d_159_1049)">
<path d="M13.277 40.7535V32.2817C18.653 27.7132 20.3908 22.6385 20.5877 20.6722V15.9029C20.5877 15.3005 21.3754 14.9825 21.7693 14.8989H28.3416C28.7943 14.8989 29.1363 15.384 29.3039 15.7348C29.3236 15.6098 29.3511 15.7169 29.3754 15.9029C29.3571 15.8532 29.3332 15.796 29.3039 15.7348C29.2639 15.9892 29.2566 17.2049 29.3754 20.6722C29.5527 25.8432 34.3231 30.5665 36.6862 32.2817V40.7535H13.277Z" fill="url(#paint0_linear_159_1049)" stroke="#CCCCCC" stroke-linecap="round"/>
<path d="M13.2031 35.1482H36.6862" stroke="#CCCCCC"/>
<g style="mix-blend-mode:multiply">
<rect x="13" y="34.9063" width="24" height="6.09371" fill="#F5F73F"/>
</g>
<path d="M21.843 14.8989V11.1964L27.3815 9H28.1938V14.8989H21.843Z" fill="#F5F73F" stroke="#CCCCCC"/>
</g>
<defs>
<filter id="filter0_d_159_1049" x="0.776978" y="0.5" width="48.4092" height="56.7535" filterUnits="userSpaceOnUse" color-interpolation-filters="sRGB">
<feFlood flood-opacity="0" result="BackgroundImageFix"/>
<feColorMatrix in="SourceAlpha" type="matrix" values="0 0 0 0 0 0 0 0 0 0 0 0 0 0 0 0 0 0 127 0" result="hardAlpha"/>
<feOffset dy="4"/>
<feGaussianBlur stdDeviation="6"/>
<feComposite in2="hardAlpha" operator="out"/>
<feColorMatrix type="matrix" values="0 0 0 0 0 0 0 0 0 0 0 0 0 0 0 0 0 0 0.08 0"/>
<feBlend mode="normal" in2="BackgroundImageFix" result="effect1_dropShadow_159_1049"/>
<feBlend mode="normal" in="SourceGraphic" in2="effect1_dropShadow_159_1049" result="shape"/>
</filter>
<linearGradient id="paint0_linear_159_1049" x1="36.6862" y1="40.7535" x2="13.277" y2="40.7535" gradientUnits="userSpaceOnUse">
<stop stop-color="#D3D3D3"/>
<stop offset="0.203125" stop-color="white"/>
<stop offset="0.71875" stop-color="white"/>
<stop offset="1" stop-color="#D3D3D3"/>
</linearGradient>
</defs>
</svg>
