<svg width="24" height="24" viewBox="0 0 24 24" fill="none" xmlns="http://www.w3.org/2000/svg">
<path d="M4 12C3.99931 10.2384 4.58013 8.52574 5.6523 7.12794C6.72447 5.73014 8.22805 4.72532 9.92968 4.26942C11.6313 3.81352 13.4359 3.93204 15.0632 4.60659C16.6906 5.28113 18.0499 6.47398 18.93 8" stroke="black" stroke-width="2" stroke-linecap="round" stroke-linejoin="round"/>
<path d="M14 8H19V3" stroke="black" stroke-width="2" stroke-linecap="round" stroke-linejoin="round"/>
<path d="M19.9999 12C20.0006 13.7616 19.4198 15.4743 18.3476 16.8721C17.2755 18.2699 15.7719 19.2747 14.0703 19.7306C12.3686 20.1865 10.5641 20.068 8.93671 19.3934C7.30932 18.7189 5.95008 17.526 5.06995 16" stroke="black" stroke-width="2" stroke-linecap="round" stroke-linejoin="round"/>
<path d="M10 16H5V21" stroke="black" stroke-width="2" stroke-linecap="round" stroke-linejoin="round"/>
</svg>
