<svg width="24" height="24" viewBox="0 0 24 24" fill="none" xmlns="http://www.w3.org/2000/svg">
<path d="M2.6925 2.5C2.6925 1.94771 3.14022 1.5 3.6925 1.5H20.6925C21.2448 1.5 21.6925 1.94771 21.6925 2.5V6.30518C21.6925 6.58132 21.4686 6.80518 21.1925 6.80518C20.9164 6.80518 20.6925 6.58132 20.6925 6.30518V2.5L12.6925 2.5L12.6925 21.5H16.2797C16.5558 21.5 16.7797 21.7239 16.7797 22C16.7797 22.2761 16.5558 22.5 16.2797 22.5H8.10532C7.82917 22.5 7.60532 22.2761 7.60532 22C7.60532 21.7239 7.82917 21.5 8.10532 21.5H11.6925L11.6925 2.5L3.6925 2.5V6.30518C3.6925 6.58132 3.46865 6.80518 3.1925 6.80518C2.91636 6.80518 2.6925 6.58132 2.6925 6.30518V2.5Z" fill="black"/>
</svg>
