<svg width="24" height="24" viewBox="0 0 24 24" fill="none" xmlns="http://www.w3.org/2000/svg">
<path fill-rule="evenodd" clip-rule="evenodd" d="M2.93194 21.9916C2.84374 21.98 2.75914 21.9571 2.67971 21.9241C2.59273 21.8881 2.51195 21.8401 2.43939 21.7822C2.3806 21.7353 2.32722 21.6819 2.28032 21.6231C2.22244 21.5506 2.17445 21.4698 2.13838 21.3828C2.10544 21.3034 2.08245 21.2188 2.07095 21.1306C2.06537 21.0878 2.0625 21.0443 2.0625 21V17.75C2.61478 17.75 3.0625 18.1977 3.0625 18.75V21H5.3125C5.86478 21 6.3125 21.4477 6.3125 22H3.0625C3.01825 22 2.97468 21.9971 2.93194 21.9916ZM15.3125 22C15.3125 21.4477 14.8648 21 14.3125 21H9.8125C9.26022 21 8.8125 21.4477 8.8125 22H15.3125ZM22.0625 8.75C21.5102 8.75 21.0625 9.19772 21.0625 9.75V14.25C21.0625 14.8023 21.5102 15.25 22.0625 15.25V8.75ZM8.8125 2C8.8125 2.55228 9.26022 3 9.8125 3H14.3125C14.8648 3 15.3125 2.55228 15.3125 2H8.8125ZM2.0625 6.25C2.61478 6.25 3.0625 5.80228 3.0625 5.25V3L5.3125 3C5.86478 3 6.3125 2.55228 6.3125 2H3.0625C3.01825 2 2.97467 2.00287 2.93194 2.00845C2.84373 2.01995 2.75914 2.04294 2.67971 2.07588C2.59273 2.11195 2.51194 2.15994 2.43939 2.21782C2.3806 2.26471 2.32721 2.3181 2.28032 2.37689C2.22244 2.44944 2.17445 2.53023 2.13838 2.61721C2.10544 2.69664 2.08245 2.78123 2.07095 2.86944C2.06537 2.91217 2.0625 2.95575 2.0625 3V6.25ZM2.0625 8.75C2.61478 8.75 3.0625 9.19772 3.0625 9.75V14.25C3.0625 14.8023 2.61478 15.25 2.0625 15.25V8.75ZM17.8125 2C17.8125 2.55228 18.2602 3 18.8125 3H21.0625V5.25C21.0625 5.80228 21.5102 6.25 22.0625 6.25V3C22.0625 2.95575 22.0596 2.91218 22.0541 2.86944C22.0425 2.78124 22.0196 2.69664 21.9866 2.61721C21.9506 2.53023 21.9026 2.44945 21.8447 2.37689C21.7978 2.3181 21.7444 2.26472 21.6856 2.21782C21.6131 2.15994 21.5323 2.11195 21.4453 2.07588C21.3659 2.04294 21.2813 2.01995 21.1931 2.00845C21.1503 2.00287 21.1068 2 21.0625 2H17.8125ZM22.0625 17.75C21.5102 17.75 21.0625 18.1977 21.0625 18.75V21H18.8125C18.2602 21 17.8125 21.4477 17.8125 22H21.0625C21.1068 22 21.1503 21.9971 21.1931 21.9916C21.2813 21.98 21.3659 21.9571 21.4453 21.9241C21.5323 21.8881 21.6131 21.8401 21.6856 21.7822C21.7444 21.7353 21.7978 21.6819 21.8447 21.6231C21.9026 21.5506 21.9506 21.4698 21.9866 21.3828C22.0196 21.3034 22.0425 21.2188 22.0541 21.1306C22.0596 21.0878 22.0625 21.0443 22.0625 21V17.75Z" fill="black"/>
</svg>
